<?xml version="1.0" encoding="UTF-8"?><svg id="Layer_2" xmlns="http://www.w3.org/2000/svg" viewBox="0 0 211.05 211"><defs><style>.cls-1{fill:#c8a577;}</style></defs><g id="Layer_1-2"><path class="cls-1" d="M57.33,46.7l-.97,.76-.09,1.13,1.51,.12v-.92l-.45-1.09m2.7,1.28l-.66,.64,1.03,.31-.37-.94m-11.62,.13l-1.66,.85-.05,.75,1.1-.44,.62-1.17m17.15,2.75l-1.1,.44,.47,.72,.67,.29-.04-1.45m-3.26,.95l-.92,.91-.3,1.04,1.09-.45,.69-1.01-.57-.5m-11.67,1.8l-.78,.31-.29,.66,1.19,.24-.12-1.21m18.4,1.33l-.31,1.03,.62-.24-.31-.78m-17.58,1.61l-.84,.16-.5,.56v.92l1-.22,.35-.51v-.92m4.39-1.76l-1.75,2.89-.16,.98,.82-.7,1.06-.06h.91l1.09-1.36,.82,.22-.91-.91-1.89-1.06m17.84,3.57l-1.22,.12-.81,.7,.85,.74,1.28,.03,.6-.79-.7-.81m-4.39,1.77l-.46,.19-.06,.74,.87,.38-.35-1.31m-6.11-1.18l-.98,.76-3.45,.48-.89,.54,.38,.94,4.68-.61,.88,.38,.65-.63,.22-.82-1.5-1.03m-6.65,3.41l-1.07,.06v.92l.93-.38,.13-.6m7.28,1.81l-1.15,.28,.37,.95,1.57-.64-.79-.59m8.82-.28l-.15,.98,.41,.56,.78-.31-.22-1-.82-.22m-6.27-.2l.76,1.88,.49,.34,.16-.97-.54-.88-.87-.37m5.31,3.69l-1.73,.7,.54,.88h.91l.72-.48-.44-1.1m-5.87,1.28l-.65,.63-.16,.97h.91l.66-.63-.76-.97m8.3,3.4l.25,.62,.7-.1-.95-.53m5.9-.74l-.63,2.08,.76,.97,1.17-1.2-.5-1.26-.79-.6m-.87,4.18h-.91l.26,1.54,1.25-.51-.6-1.04m-3.87,.83l-1.26,.51,.2,.47,1.25-.51-.2-.47m8.02,3.14l-.64,.26-.06,.76,.82,.22-.12-1.23m-4.46,.71l-.38,.88,.81-.7-.43-.18m7.33,4.15l.38,.93,.94-.37-.57-.5-.75-.06m3.25,56.01l-1.45-.41-1-1.01-.29-.86c-.37-.62-.62-1.31-.6-2.08l.45-.48-.34-.54,.05-2.83,.4-1.35-.39-2.06,.82-.34-.32-.55-.12-1.4,.54-3.73,.56-.73-.23-.77,1.12-2.81,.54-.33-.06-.84,.75-.51-.13-.56c1.27-2.85,2.4-5.94,2.97-9.01,1.1-5.83-.47-10.36-3.77-14.27-2.27-2.34-5.03-4.36-7.27-6.56-1.05-1.03-2.61-1.31-3.85-2.17-1.43-1-.97-1.1-2.04-2.28-.8-.88-1.58-1.01-2.56-1.65-2.09-1.35-3.21-3.72-5.21-5.19-2.16-1.58-4.4-4.09-6.88-5.16l-1.24-.53-2.08-2.5c-1.71-.78-2.85-1.94-4.43-2.83-.82-.46-1.17-.92-2.04-1.28l-2.61-2.52-.65-.18-.26-.29-2.53-3.22-.18-.95-.42-.71-.13-1.31-.27-.79,.29-2.42,.45-1.9,1.33-2.52,2.96-3.48,1.32-.61,1.5-.97,.45-.09,2.49-.64,1.46-.1,.11,.37,.46-.16,2.26-.04,.68,.42,.37,.07,.45-.15,.1,.43,.34,.29,.92,.2,.02,.43,.2,.21,.78,.13,.02,.43,1.09,1.29,.19,.54,2.74,3.17c.5,1.43,.99,2.06,2.11,3.03,.47,.4,1.02,.78,1.37,1.3,.51,.78,.04,1.15,.18,1.83,.09,.46,.48,.74,.93,.98l-.15,.37,.56-.14,.77,.54,.2,.62-.02,.02h.03l.21,.65c1,1.49,1.83,3.17,2.9,4.57,.38,.49,.81,.93,1.25,1.37l-.29-.04-1.16,.29-.98,.76,.38,.93,2.66-1.07,.02-.23c.63,.63,1.23,1.27,1.7,2.04,.37,.63,.63,1.31,.9,1.98l-.47-.29-1.13-.09-3.08,.51-.05,1.66,2.06-.29,2.05-.82,.72-.45,.16,.37c.38,.87,.68,.83,1.32,1.45,.51,.5,.87,1.14,1.23,1.78l-.21,.29-.26,1.2,.76,.06-.5,.56,1.09-.44,.09-.16c.79,.96,1.45,1.24,2.04,2.61l.69,.82-.18,.59,.51-.2,.02,.02c1.26,1.55,2.64,3.27,3.94,4.88,.85,1.06,1.75,2.1,2.57,3.19,.78,1.03,1.34,2.21,2.23,3.13l1.03,.81c.42,.22,.8,.43,1.18,.73,2.52,1.39,5.28,1.95,8.12,1.95,3.96,0,8.07-1.09,11.83-2.53l.28-.05,1.07-.6,1.49-.32,1.16-.32,.78-.08,.49-.41,2.31-.73,1.39,.18,1.26-.23,1.18,.26,.48-.4,1.37-.36,3.76-.07,.81,.45,.73-.36,2.96,.65,.3,.4,.84,.26,1.73,1.58,.19,1.54-.29,1.31-1.34,1.5-.53,.12-.94,.59-.15-.02-.37-.26-.13,.04-1.03-.29-6.72,.13-2.47,1.14-.89-.43-.81,.63-.83-.12-4.91,1.34-4.81,2.2-.11,.13c-1.18,.6-2.34,1.25-3.5,2l-2.19,1.18-.34,.58c-.46,.35-.93,.74-1.39,1.12l-1.47,1.12-.14,.27-.97,.83-.37,.38-.4-.06-2.03,2.58c-.66,.74-1.25,1.49-1.83,2.24l-.39,.07-.13,.59c-.72,.98-1.38,1.97-1.99,2.97l-.86,.76v.63c-.37,.69-.68,1.41-1.01,2.12l-.84,.89,.12,.64c-.18,.45-.32,.91-.48,1.36l-.23,.13-.84,1.57-.74,.74,.5,1.85-.05,.37-.13,.56-1.15,1.94,.21,2.45-.62,.65-.39,6.04,.15,1.29c-.34,.58-.82,1.07-1.39,1.42l-.38,.42-2.12,.46m63.66-26.98l-1.06,.6,.72,.7,.47-.71-.13-.59m4.9,2.21l-.71,.49,.72,.7,.58-1.08-.59-.11m5.24,1.62l-.59,1.07,.13,1.06,.94-.48,.12-.84-.6-.82m-8.44,.67l-.94,.24-.95,.72,.49,1.89,.72,.47,.68-3.33m-27.06,3.81l.08,.82,1.24-.15-1.32-.67m22.32-1.39l-1.04,2.5,.84,.59,.94-.24,1.3-1.8-2.04-1.04m8.57,.64l-.35,.84,1.33,1.77,.58-.84v-.72l-1.56-1.05m-12.71,1.88l-.58,.84,.48,.71,.83-.12-.73-1.42m9.28,1.11l-.59,.84,.37,.84h.48l.35-.84-.6-.83m6.78-.17l-.84,.13-.23,.71,.26,.95,.6,.12,.7-.96-.49-.94m-8.74,6.72l-1.07,.61,.73,.7,.47-.71-.13-.6m4.41,1.75l-.84,.36,.37,.83,.96,.7,.95-.24,.12-1.08-1.55-.57m5.49,2.56l-.83,.13,.37,1.07,.6,.59,1.06-.6-1.2-1.18m-59.2,5.45l.1,.82,1.03-.12-1.12-.7m52.92,.24l-.6,.87-.32,1.13,.46,.82,1.34-1.01,.4-.75-.34-.62-.93-.44m-19.73,2.84l.9,.12,.56-.18,2.03-1.03,.23-.04,.64-.98,.98-1.02,.16-.56,.49-.98-.04-.43,.17-.85-.1-.29,.35-.42,.05-.29-.18-.29-.12-.57,.05-.28,.13,.15,.14-.05-.08-.28-.19-.15-.52-.12-.31-1.04,.1-.38-.27-.05h-.24l-.27-.53-.84-.68-.27-.48-.56-.21-.76-.44-.51-.02-.42-.38-.57-.11-1.71,.04-1.14,.3-1.06,.4-1.4,.82-.78,.84-.89,1.21v.37l-.36,.76-.09,1.08-.26,1.09,.4,1.01,.08,.95,.58,.82,.16,.9,.33,.1,1.54,1.28,.46,.1,.65,.64,.99,.22,1.71-.05m-8.58,1.3l.15,1.23,1.23-.14-.53-.98-.85-.11m-13.68,.15l-.81,.1-.3,1.07,1.24-.14-.13-1.03m47.61-1.28l-1.78,.7-.6,.88,.87,.61,1.9,.72-.39-2.91m-12.99-.17l-.5,.54-.44,2.15,1.78,.51-.21-2.33-.63-.87m8.54,4.66l-.51,.56,.35,.63,.16-1.18m-12.01-1.12l-.79,.31-.7,.66-.03,.7,.82,.77,.89-.62,.28-.98-.47-.83m16.57,1.72l-.91,1.32,1.13,.32,.27-.96-.49-.68m-12.9,1.96l-1.22,1.23,.71,.54,1.06-.04,.17-1.18-.72-.56m-31.74,1.14l.12,1.02,1.04-.13-.31-.78-.85-.11m3.02,13.35l-.81,.09,.09,.82,.81-.09-.09-.82m6.76,2.74l-1.23,.15,.74,.95,.49-1.1m12.5,6.91l-3.03-.09-.49-.38-.77,.35-.74-.53-.51,.37-1.53,.09-3.52-.6-.63,.11-.51-.27-.23-.63-1.02,.35-.62-.65-1.51-.04-2.25-1.07-1.5-.29-5.73-3.19v-.5l-2.48-1.59-3.82-3.51-.09-.76-1.75-1.19-.7-1.91-.49-.53-1.5-.67-.1-.89-.59-1.4,.14-.88-1.25-.67-.2-1.53-.73-1.28-.5-.39-.08-1.64-.7-2.05-.49-.64,.4-.75-.6-1.28-.79-3.43,.66-.62-.6-1.4,.09-3.02-.24-.64,.74-4.02,.38-.62-.21-1.01,1.12-4.4,1.76-3.99,.51-.49,.02-.89,.76-.36,.57-2.25,3.93-5.08,.78-.23,.38-.37,.54-1.25,1.66-.84,.53-1h.5l1.58-1.84,.88-.1,1.16-.85,.39-.62,.76-.12,.78-.85,.9-.1,.63-.37,.89-.1,1.17-.98,.89-.1,1.15-.6,.88,.02,2.17-.95,.88,.27,.51-.49,1.41-.46,2.26,.18,1.16-.6,2.15,.18,.51-.24,2.65,.07,.38,.4,.77-.37,1.76,.05,2.88,.84,1.39,.04,1.25,.79,1.51,.04,1.38,.42,3.88,1.87,.74,.14,.49,.65,.74,.27,.37,.64,.75,.15,.62,.53,.75,.15,1.61,1.56,1.12,.53,.73,1.16,.87,.28,.99,1.15,.75,.41v.5l.73,.4,.48,.64,.75,.53-.15,.76,1.84,2.2,.59,1.4,.99,1.04,1.07,2.18,.21,1.51,.98,1.17,.24,.64-.15,.75,.98,1.29-.02,.76,.35,.51-.27,1.13,.93,2.55,.07,2.28,.47,.89-.45,2.77-.15,5.43-.5-.02,.32,2.03-.96,2.63-.38,.49,.23,.89-2.27,4.49-.43,1.63-.67,1.37-.92,1.11-1.06,2.11-1.17,.73-.66,1.25-.76,.1-.15,.89-5.7,5.15-1.41,.59-1.04,.99-1.4,.59-.54,.74-.76,.23-.4,.5-2.67,.93-1.4,.09-1.8,1.09-.61-.65-.4,.49-1.28,.6-3.68,.78-.87-.27-.65,.49m-74.96,24.61l-.54-.02v-.35h.54v.37M114.33,2.32l-.38,.89,.51,.92,.39-1.07-.52-.73m-10.65,.96l.16,.91,.73-.34-.89-.57m7.55,.93l-.57,.53,1.64-.49-1.07-.03m-15.84-.43l-.91,.34-.56,.53,.71,.56,.76-1.42m-10.12,1.34v.54l.7,.02v-.54l-.7-.02m10.64-.6l.32,1.26,.22-1.25h-.54m2.67,.96l-.18,.17v.36l.18-.53m23.72,1.9l.15,1.08,.56-.89-.71-.2m18,.31l-.38,.71,.71,.2-.34-.91m-73.18,2.34l.53,.73,.56-.53-1.08-.21m66.08,.35l-.2,.9,1.08-.15-.88-.74m15.61,2.23l-.9,.33,.34,.73,.57-1.06m-83.07,2.06l-.9,.16,.15,.9,.53,.56,.56-.89-.34-.73m-3.66,1.89l-.02,.72h.54l-.53-.72m94.53,.76l-1.09,.15,.53,.74,.56-.89m11.14,7.33l.15,1.09,.71,.38,.2-.9-1.06-.57m13.35,12.43l-.02,.9,.71,.38,.88,.56-.51-1.09-1.06-.75m-2.03,1.93l-.73,.16,1.25,.39-.53-.55M18.26,52.12l.18,.18h.36l-.54-.18m-7.45,15.83v.35h.53l-.53-.35m191.47,5.37l-.22,1.07,1.08,.03-.15-.91-.71-.2m2.01,5.1l-.54,.16,.53,.37v-.54m-1.12,1.95v.54l.53,.02v-.54l-.53-.02m2.28,2.22l.35,.73,.37-.71-.72-.02M5.09,86.52l-.38,.71,.54,.19-.15-.9m-1.55,3.73v.37h.35v-.36h-.35m.96,11.19l-1.83,.85-.38,1.07,.88,.38,.91-.33,.42-1.97m2.05,10.69l-.91,.33,1.06,.57-.15-.9m201.49,.95l-.02,.9,.71,.02-.69-.92m-203.51,.43l-1.09,.15,.72,.2-.2,.54,.57-.89m202.87,3.16v.36l.72-.34-.72-.02m-203.67-.12l-.73,.52,1.07,.21-.34-.73m1.23,1.11v.54l-.74,.17,1.25,.38,.91-.33-1.42-.76m.27,3.43l-.91,.15-.38,.71,1.29-.87m2.15,.05l-.57,1.07,1.08,.03-.51-1.1m-4.16,.79l-.2,.54,.9,.2-.7-.74m2.25,3.13l-.56,1.06,1.43,.04,.21-1.07-1.09-.03m1.72,3.28l-.39,1.07,.74-.35-.35-.73m198.61,.88l.69,.92,.21-.9-.9-.02m-199,.37l-.04,1.26-.57,1.25,2.02-1.38-1.41-1.12m.57,5.6l-.39,.89,.9,.2-.51-1.09m3.16,2.79l-.21,.89,.71,.38-.51-1.27m189.75,1.72l.35,.55,.19-.53-.54-.02m-189.56,4.04l-.36,.35,.87,.74-.51-1.1m2.05,4.2l-.92,.7,1.61,.23-.7-.92m185.69-.54l-1.1,.33-.2,.89,.71,.56,.59-1.78m-184.65,2.38l-.91,.34,.16,.54,.74-.88m181.34,6.9l-.36,.16-.02,.54,.71,.2,.2-.71-.54-.19m-178.49,1.1l1.94,1.31,.24-1.97-1.4-1.3,.56-.7-.16-.9-1.26,.15,.67,1.82-.03,1.07,.73-.16,.49,1.45-.88-.74-.9-.03m175.04,.06l-.2,.72-.03,.9,.9,.02,.02-.9-.7-.74m-4.37,1.69l.15,.9,1.09-.15-.35-.73-.89-.02m-166.41,.53l.16,.54,.38-.53-.54-.02m-2.71,.29l-1.26,.15,.15,.91,.9,.2,.21-1.25m3.03,.98l-.21,1.07,.92-.7-.71-.38m-1.09,.69l-.92,.52-.21,.89,.92-.52,.21-.89m4.61,2.47l-.91,.16-.2,.89,.34,.37,1.09-.33-.33-1.09m-1.31,1.76l-.2,.72,.54,.02,.02-.73h-.36m2.67,1.14l-.02,.73,.53,.56,.57-1.07-1.07-.21m-1.16,2.85l.34,.74,1.26,.21-.53-.73-1.07-.21m157.74,.68l-.02,.71,.54,.02-.52-.73m-9.18,6.41l-.2,.54,.73-.52-.54-.02m-138.29-.51l-.9,.15-.37,.71,1.07,.21,.2-1.08m141.3,2.93l-.38,.71h.71l.02-.7h-.35m-138.36,2l-.9,.16,.16,.73,.9,.21-.15-1.09m.15,1.27l-.76,1.42,1.09-.33-.34-1.09m127.76,3.29l-.19,.35,.71,.38-.53-.73m-122.98-.45l.34,.9,.89,.39-.16-.91-1.07-.38m6.09,.89l-.37,.71,.7,.74,.21-1.07-.54-.37m-4.2,2.41l-.2,.71,.92-.51-.71-.2m6.99,1.45l-.91,.34,.7,.74,.21-1.08m-2.23,2.46l-.02,.54h.54l.02-.53h-.54m104.8-.05l.53,.73,.74-.51-1.26-.22m-98.1-1.39l-.42,2.15-.39,1.07,1.82-.67,.04-1.26-1.05-1.28m5.34,2.3l-1.44,.14,.51,.92-.2,.54,1.12-1.59m88.96-.11l-.37,.71-.38,.89,.53,.37,.56-.88,1.09-.33-.34-.56-1.08-.21m-90.26,1.7l-1.08,.15,.87,.92,1.25,.39,1.13-1.59-1.98,.13h-.18m2.15,.59l-.02,.9,.54,.02-.51-.92m-2.6,2.63l1.25,.4-.5-1.64-1.79-.4-.05,1.8,1.09-.15m81.6-.85l-.38,.7,.16,.73,.56-.71-.35-.73m2.67,1.15l-.56,.7,1.09,.03-.53-.73m-6.49,.37l-.2,.71,.89,.21-.7-.92m-73.25-1.62l-.57,.89,.34,.91-1.11,1.05,.71,.2,.92-.33,.57-.89,1.07,.03,.2-.9,1.83-.85-.34-.73-1.1,.69-.92,.87-.9-.02-.69-.92m13.27,1.8l-1.09,.51-.02,.9,.73-.34,.38-1.07m55.62,.96l.31,1.64,.91-.34,.03-1.08-1.25-.21m-60.37,1.42l-.02,.9,.92-.87-.9-.03m.76-1.41l1.92,2.39,.77-1.96-1.79-.41-.9-.02m11.5,1.21l-1.1,.68-.4,1.25,1.99-.31-.49-1.63m-4.27-2.1l.7,.74,4.29,1.2,3.6,.1,.89,.57,3.23,.26,.33,1.09,1.06,.57,.03-1.08,4.51-.42,1.06,.57,1.65-.68,1.07,.38,2.52-.1,.88,.74,.74-.53,3.6-.08,.92-.51,2.14,.59,2.17-.12,4.18-1.32,1.98,.23,1.64-.86,3.25-.27,.38-.71,3.43-.27,1.83-1.03,1.07,.21,2-.84,1.81-.13,2.91-1,.93-1.23,1.09,.02,5.28-2.38,1.09,.21,.21-1.25,4.01-1.87,2.19-.66,.02-.72,4.03-2.77,1.63-.31,1.31-1.77,3.1-1.36,.21-1.26,1.83-1.03,1.48-1.4,1.83-1.03,.7,.37-.49-1.62,.91-.34,1.67-1.75,.73-.16,1.06,.93-.67-2,1.67-1.4,.56-.89,1.62,.04,.96-2.31,1.48-1.59,.21-1.07,1.5-2.3h.54l2.78-2.8,.04-1.61,.92-.7,1.15-2.85,1.83-1.04-.51-1.27,1.65-1.22,.03-1.07,.74-1.07-.15-1.07,2.45-4.08,1.54-3.91,1.26,.03-.87-.93,.21-1.25,.92-.87,.21-1.08,.93-1.23-.15-1.09,1.52-2.85-.86-1.28,1.15-2.66,.73-.53-.33-.9,.41-2.15-.15-1.09,1.08-.15-.87-.93,.98-3.03-.34-.91,.6-1.97-.33-1.09,.6-2.14-.34-.92,.42-2.15-.15-1.26,.43-2.33-.52-.92-.09-3.24h.54l-.39-5.4-.81-3.26,.56-.71-.51-.91-.12-2.17-.81-3.44,.39-1.07-1.04-1.47,.05-2.16-2.52-6.55,.38-.71-.16-.72-.53-.38-.85-1.81,.02-1.08-2.55-5.29,.21-1.07-1.4-1.48-2.42-3.67-.49-1.64,.21-1.07-.89-.56-1.55-2.56-.7-.56,.04-1.43-.9-.21-1.23-1.29,.56-.7-1.58-1.3-1.22-1.65-1.76-1.14-.85-1.82-2.44-3.12-.88-.57-.51-1.27-1.94-1.31-2.98-2.96-1.4-1.84-1.24-.39-3.18-2.61-1.25-.4-2.1-2.39-3.21-1.53-.69-.92-2.83-1.88-.72-.02-1.76-1.12-.7-.92-3.92-1.55-1.4-1.29-1.07-.03-1.6-.95-1.26-.03-.34-1.09-.73,.34-.89-.2-.7-.74-2.86-.98-1.26,.33-.9-.2-1.76-1.31-2.16-.24-.88-.74-4.66-.67-1.59-1.12-2.36,.48-.15-1.08-1.99,.66-5.56-1.04-1.06-.57-1.09,.33-1.07-.39-.93,.88-1.6-.59-8.29,.14-2,.49-.71-.57-1.81,.49-6.87,.71-1.64,.68-1.44-.23-2.36,.84-3.26,.63-.71-.37-.73,.7-3.11,1.54-1.97-.42-1.11,.87-.51-.74-.2,.72,.34,.73-2.71,.46-1.09,.15-.56,.89-2.73,.82-1.83,1.03-1.09-.03-.56,.89-3.1,1.53-.72-.2-.02,.9-3.83,1.87-2.76,2.09-.71-.38-3.33,3.15-3.68,2.78-1.86,2.47-1.1,.32-1.3,1.77-3.85,2.6-1.32,1.94-1.64,.85-.95,1.95-1.87,2.66-.9-.02-2.45,3.89-.92,.7-.03,1.07-1.48,1.22-.58,1.79-1.65,1.03-.03,1.08-1.13,1.59-.41,1.97-.73,.34-1.34,2.66,.34,1.09-1.64,.85-.21,1.08-1.14,1.95-.03,1.08-1.95,5.53-.92,.7,.15,1.26-1,3.76-.04,1.43-1.11,1.05,.15,1.08-.61,2.51,.15,1.27-.95,1.78,.7,.73-.78,1.96-.65,4.13,.48,1.99-.74,.89-.42,2.33,.32,1.09-.45,3.41,.48,2.17-.39,1.07,.11,2.52,.51,.92-.2,1.07,.3,2.35,.66,2-.93,1.05,1.2,2.38-.94,1.42,1.03,1.83,.48,2.17,.53,.91-.58,1.07,1.05,1.47-.03,1.07,.71,.2,.3,2.35,2.17,6.36,.31,1.98,1.22,1.48-.04,1.26,1.22,1.65,.31,1.99,.7,.74,.29,2.53,1.25,.21-.02,.9,.88,.74,1.72,3.11-.38,.89,1.25,.4,3.8,5.86,1.24,.76,.15,1.26,1.22,1.48-.21,.89,1.25,.21,.89,.56,.32,1.27,1.41,1.12,.85,1.83,1.95,.96,2.97,3.14,.34,.92,1.78,.95,.33,1.09,2.14,.78,1.57,1.84,.51,1.1,1.62,.4,.32,1.09,1.96,.59,.35,.91,.91-.51,.33,1.09,3.21,1.53,.7,.74-.56,.88,.16,.73,.88,.57,.23-1.62,.54-.16,1.95,1.14,.7,1.1,2.33,.42,1.94,1.31,.16,1.08,.89,.03-.53-.38,.56-.7,3.74,1.9,.52,.74,1.97,.59,1.09-.15,.84,2.18-.93,1.24-3.24,.1-.92,.51,.88,.92,1.07,.38,1.1-.68,.15,1.09-.74,.87,.91-.15,.38-1.07,.74-.7,1.25,.21-.15-1.26-.51-.92,.54-.34,.39-.89,.92-.52,.51,1.09,1.28-.32,4.09,1.54-.38,.71,.53,.73-3.1,1.36,3.6,.1,1.65-1.04-1.44-.04,.42-2.15m1.86,4.38l-.56,.7,1.27-.33-.71-.37m44.86-.77l-.37,.35,.34,.91,.71,.38,.21-.89-.89-.74m-47.57,.87l.87,1.11-.15-1.09h-.73m45.38,.32l-.21,.89,.72,.02-.51-.91m-33.3-.54l-1.11,.87-.92,.7,.53,.37,1.47-.86,.03-1.08m4.29,1.01l-.9,.16,.15,1.08,.54,.02,1.3-1.23-1.08-.03m17.63,.66l-.54,.35,.89,.56-.34-.91m-21.41-.58l-.93,1.23,1.07,.39,.2-.89-.34-.73m17.62,.84l.16,1.09,.9-.15-1.06-.93m-12.62,.56l-.37,.53,.89,.02-.53-.55m22.89-.28l-.21,.9,.9-.16-.69-.74m-39.44-.35l-.38,.89,1.07,.4,1.08,.03-.7-.93-1.07-.38m10.22,1.54v.36h.35v-.35h-.35m37.28-.09v.54l.73-.51-.73-.02m-40.32-.73l.84,2-.46-2.72,.57-1.06-.73,.71-1.07-.76-.71-.02,.68,1.46-.56,.89,.51,.92,.94-1.42m25.35,1.59l-.92,.52,.71,.2,.21-.72m-20.14-1.27l.85,1.65,.89,.56-.31-2.17-1.43-.04m-3.82,1.34l-.02,.9,.56-.16-.53-.73m17.29,.1l.34,.73,.89,.2-.34-.73-.89-.21m5.87,2.69l-1.05-1.11-2.91,1-2.17-.05-.88-.39-1.28,.51-4.3-.65-2,.67-3.4-.81-1.09,.33-1.23-1.11-2.19,1.02-1.07-.57-1.09,.15-1.04-1.47-1.09,.51-1.41-1.3-.93,1.23-4.65-1.38,.23-1.26-1.65,.85-.9-.38-.71,.16-1.24-1.12-1.08,.15-1.78-.59-.71-.56-1.26-.03-1.95-1.31-.85-1.47-.89-.38,.31,1.81-.9-.21-.53-.55-.9-.2,.4-1.25-1.83,1.03-1.42-.94,.76-1.24-.71-.2-2.35,.3-1.07-.21-.88-.93-.12-2.34-2.55,1.19-.88-.57,.93-1.59-1.26-.04-.38,1.07-3.74-1.72-.52-.92-1.59-1.12-.33-1.26,.56-.34,1.26,.21,.91-.34-3.03-1.35,.14,1.81-.38,.53-2.14-.6-1.59-1.12-1.21-1.65-.16-1.09-1.44-.04,.21-1.07-.51-.91-.4,1.25-.9-.21-.15-.9-1.07-.4-2.47-2.22-1.24-.4-.34-.9-1.58-1.31-.34-1.08-2.3-1.51,.21-.9-1.42-.93-.15-1.08-1.26-.04-1.22-1.48-.89-.56-.33-1.09-2.09-2.4-.51-1.09-.72-.02-.49-2-1.4-1.48-1.2-2.2-2.44-3.3-.33-.91-.71-.56,.4-1.07-2.61-3.49-.32-1.09-.89-.56,.02-.9-1.86-4.19-.15-1.27-2.93-4.94,.07-2.52-.66-2.18-1.55-2.92-.1-2.53-.51-1.09,.21-1.08-1.34-3.82-.25-4.15,.92-.51-.53-.56-.9-.2-.53-6.68,.73-.34-.84-2v-6.66l.76-1.43-.89-.56,.17-6.3,.38-.89-.15-1.09,.98-3.03,.65-3.94-.15-1.26,1.55-3.92-.51-1.1,.74-.7,.23-1.98,1.16-2.85,.04-1.25,1.89-3.37-.31-1.63,2.08-3.55,.23-2.16,1.31-1.58,.95-1.96,.92-.51-.71-.38,.38-1.25,1.51-1.94,.95-2.14,.92-.7,.04-1.26,1.48-1.58,3.57-5.67,3.89-3.86,.39-1.07,1.3-1.4,.21-1.07,2.97-3.35,1.65-1.4,1.09-.51,4.63-4.55,1.13-1.77,1.26-.32,4.41-3.3,1.09-.51,1.3-1.4,1.09-.34,1.66-1.39,1.1-.52,.75-1.24,1.26-.15,.92-.51,.38-.89,1.44,.22,1.66-1.58,1.08,.03,1.28-1.04,1.09-.15,.56-.89,4.18-1.51,2.39-1.73,2.15,.41,1.1-.69,.4-1.06,2.16-.13,6.36-1.99,1.25,.04,.93-.88,1.07,.21,3.45-.63,.73-.7,1.07,.21,1.83-.67,.89,.38-.95,1.78,.71,.56,.9-.51-.32-1.27,4.18-1.69,1.08,.04,.89,.56,1.47-.86,1.41,.94,2.74-1.19,1.97,.42,1.1-.34,3.23,.27,1.24,.93,1.27-.68,1.07,.38,4.88-.41,.89,.57,2.34-.12,.52,.56,2.86,.79,1.09-.34,3.39,1,1.81-.49,2.66,1.51,2.14,.6,3.23,.26,1.06,.93,1.26-.15,1.78,.95,3.03,.8,.52,.74,1.97,.42,.7,.74,2.14,.6,1.4,1.3,1.26,.21,1.04,1.47,2.16,.24,1.96,.96,1.4,1.29,1.09-.15,.51,.74,1.95,1.13,.51,.92,1.26,.03,.33,.91,4.07,2.81,1.07,.21,.48,1.81,2.15,.78,1.76,1.31,2.8,2.95,1.76,1.31,1.07,.38,.84,2.37,3.34,2.97,.51,1.09,1.07,.57,.32,1.09,1.25,.57,.66,2,1.42,.94,2.44,3.12,.85,2.01,1.4,1.48,2.03,4.92,1.61,.77,2.22,4.38,.81,3.08,.53,.38,1.69,4.55,1.04,1.82,1.31,4.36,.7,.74-.04,1.44,.51,.92,.48,2.36-1.12,1.59,1.63-.32,.63,3.44,.52,.74-.21,1.07,.86,1.65-.57,1.06,1.15,4.18,.42,4.34-.24,2.34,.82,2.89-.39,1.07-.04,8.46-.44,2.87,.33,1.09-.22,1.25-.74,.89,.67,1.64-.77,2.14-.25,2.52-.74,.52,.64,3.08-1.55,4.1-.45,3.23-.74,.52-.99,3.58-.56,.71,.15,1.08-.74,1.06-.04,1.26-2.67,5.33,.14,1.08-1.86,2.66,.14,1.26-3.39,5.49-.74,.7-.02,.9-.95,1.78-.74,.7-.04,1.26-1.28,.51-.73,.7,.14,1.27-1.45,.13-.04,1.62-2.6,2.8-.39,1.07-1.49,1.76-.91,.51-1.31,1.76-.39,1.07-1.09,.52-1.67,1.75-1.09,.51-1.13,1.95-3.14,2.97-1.27,.15-.4,1.61-2.19,1.2-.57,1.06-2,.84-.39,1.07-1.26-.03-.56,.89-1.82,.67-1.07-.39-.21,.72,.34,.9-.92,.69-2,.67-1.48,1.39-1.82,.86-1.26,.14,.15,.91-4.19,1.87-1.08-.03-.38,1.07-2.17,.48-1.82,.85-1.04-1.64-.21,1.07,.71,.56-.74,.7-1.99,.48-.38,.71-1.08,.15-.75,.88-1.43-.04-2.94,1.54-4.15,.43-1.47,1.04-1.07-.38-2.56,1.37-1.97-.59-.9,.33-.57,.71-3.79,.43-2.34-.06-1.29,.87-1.07-.38-2.16,.12-.92,.52"/></g></svg>